<svg xmlns="http://www.w3.org/2000/svg" width="28" height="22" viewBox="0 0 28 22" fill="none">
  <path d="M27.3334 2.89948C26.3527 3.33402 25.2992 3.62763 24.1917 3.76034C25.3216 3.08386 26.1883 2.01043 26.597 0.732651C25.54 1.3598 24.3691 1.81548 23.123 2.05976C22.1247 0.998072 20.7037 0.333344 19.1299 0.333344C16.1093 0.333344 13.6594 2.78321 13.6594 5.8062C13.6594 6.23369 13.7088 6.64944 13.8004 7.0511C9.25179 6.82208 5.22231 4.64351 2.52346 1.33396C2.05369 2.14432 1.78357 3.08386 1.78357 4.08448C1.78357 5.98236 2.75013 7.65828 4.217 8.63893C3.31973 8.60957 2.47649 8.36411 1.73894 7.95424V8.0247C1.73894 10.6754 3.62391 12.8869 6.1278 13.3895C5.66742 13.514 5.18473 13.5798 4.68677 13.5798C4.33444 13.5798 3.99033 13.5469 3.65679 13.4835C4.35323 15.6562 6.37326 17.2393 8.76792 17.2816C6.8947 18.7496 4.53527 19.6246 1.97266 19.6246C1.53107 19.6246 1.09535 19.5987 0.666687 19.5482C3.08837 21.102 5.96338 22.0063 9.05214 22.0063C19.117 22.0063 24.6192 13.6702 24.6192 6.44039C24.6192 6.20551 24.6134 5.96827 24.6028 5.73338C25.6715 4.96061 26.5993 3.99875 27.331 2.903L27.3334 2.89948Z" fill="#2762B1"/>
</svg>