<svg xmlns="http://www.w3.org/2000/svg" width="32" height="32" viewBox="0 0 32 32" fill="none">
  <path d="M15.7451 9.41203C15.1344 9.42328 14.6183 9.94355 14.6291 10.537C14.6403 11.1523 15.1465 11.6336 15.7746 11.6261C16.4042 11.6185 16.8818 11.1321 16.8757 10.5038C16.8706 9.88712 16.3666 9.40068 15.7451 9.41203ZM9.80107 10.5541C9.82387 9.96287 9.31157 9.43033 8.70307 9.41244C8.08005 9.39414 7.56765 9.87025 7.54945 10.4843C7.53105 11.1065 8.00695 11.605 8.63447 11.6209C9.25657 11.6368 9.77807 11.1599 9.80107 10.5541ZM21.1938 11.5613C18.7184 11.6906 16.5659 12.441 14.8183 14.1364C13.0526 15.8494 12.2465 17.9481 12.4668 20.5501C11.4993 20.4302 10.618 20.2983 9.73176 20.2237C9.42567 20.1979 9.06243 20.2345 8.80316 20.3808C7.94255 20.8664 7.11751 21.4147 6.13964 22.026C6.31906 21.2144 6.4352 20.5038 6.64079 19.8203C6.792 19.3179 6.72196 19.0384 6.25915 18.7111C3.28759 16.6131 2.03501 13.4734 2.9724 10.241C3.83966 7.25058 5.96941 5.43704 8.86327 4.49167C12.8131 3.20147 17.2521 4.51754 19.6539 7.65349C20.5213 8.78625 21.0532 10.0576 21.1938 11.5613Z" fill="#2762B1"/>
  <path d="M23.5846 16.5124C23.1004 16.5091 22.689 16.9054 22.6692 17.3946C22.6482 17.9178 23.0549 18.3474 23.5725 18.3487C24.0734 18.3503 24.469 17.9716 24.4873 17.4733C24.5066 16.949 24.0999 16.516 23.5846 16.5124ZM17.8327 18.3549C18.3319 18.3554 18.7426 17.9649 18.7615 17.4721C18.7815 16.9502 18.3618 16.5126 17.8393 16.5104C17.3221 16.508 16.8885 16.952 16.9066 17.4659C16.9236 17.9571 17.3373 18.3544 17.8327 18.3549ZM26.7552 26.9937C25.9714 26.6446 25.2523 26.121 24.4869 26.041C23.7243 25.9614 22.9226 26.4013 22.1248 26.4829C19.6946 26.7315 17.5174 26.0542 15.7221 24.3941C12.3078 21.236 12.7956 16.3939 16.7459 13.8058C20.2567 11.5057 25.4056 12.2725 27.8809 15.464C30.041 18.2488 29.7871 21.9456 27.1501 24.2852C26.387 24.9623 26.1124 25.5195 26.602 26.412C26.6924 26.5769 26.7027 26.7855 26.7552 26.9937Z" fill="#2762B1"/>
</svg>