<svg xmlns="http://www.w3.org/2000/svg" width="120" height="50" viewBox="0 0 120 50" fill="none">
  <path d="M22.4028 49L1.33378 36.8357L1.33362 12.507L22.403 1L43.4724 12.507L43.4721 36.8357L22.4028 49Z" fill="white" stroke="white" stroke-miterlimit="10"/>
  <path d="M22.382 3.50937L16.7419 6.76558L22.382 10.022L28.0215 6.76558L22.382 3.50937Z" fill="#008445"/>
  <path d="M16.1153 7.12723L10.4756 10.3836L16.1153 13.6398L21.755 10.3836L16.1153 7.12723Z" fill="#008445"/>
  <path d="M28.6483 7.12723L23.0085 10.3836L28.6483 13.6398L34.2881 10.3836L28.6483 7.12723Z" fill="#008445"/>
  <path d="M34.9147 10.7453L29.275 14.0015L34.9147 17.2579L40.5546 14.0015L34.9147 10.7453Z" fill="#008445"/>
  <path d="M9.84881 10.7453L4.20911 14.0015L9.84881 17.2579L15.4887 14.0015L9.84881 10.7453Z" fill="#008445"/>
  <path d="M3.896 35.5285L9.5357 38.7844L9.53603 32.272L3.896 29.016V35.5285Z" fill="#C3DD89"/>
  <path d="M10.1624 39.1463L15.8022 42.4025L15.8026 35.8899L10.1624 32.634V39.1463Z" fill="#C3DD89"/>
  <path d="M3.896 28.2926L9.53603 31.5482V25.0362L3.89632 21.7802L3.896 28.2926Z" fill="#C3DD89"/>
  <path d="M3.89612 21.0565L9.53582 24.3123L9.53599 17.8002L3.89612 14.5443V21.0565Z" fill="#C3DD89"/>
  <path d="M16.4292 42.7642L22.0689 46.0205L22.0691 39.508L16.4292 36.2519V42.7642Z" fill="#C3DD89"/>
  <path d="M40.8683 35.5285L35.2286 38.7844V32.272L40.8683 29.016V35.5285Z" fill="#1F3E7C"/>
  <path d="M34.6019 39.1463L28.9622 42.4025L28.9619 35.8899L34.6019 32.634V39.1463Z" fill="#1F3E7C"/>
  <path d="M40.8682 28.2926L35.2285 31.5482L35.2281 25.0362L40.8682 21.7802V28.2926Z" fill="#1F3E7C"/>
  <path d="M40.8682 21.0565L35.2285 24.3122L35.2281 17.8005L40.8682 14.5446V21.0565Z" fill="#1F3E7C"/>
  <path d="M28.3356 42.7642L22.6958 46.0205L22.6954 39.508L28.3356 36.2519V42.7642Z" fill="#1F3E7C"/>
  <path d="M22.3822 38.9655L28.0219 35.7096L22.3822 32.4529L16.7423 35.7096L22.3822 38.9655Z" fill="#008445"/>
  <path d="M28.6484 35.3475L34.2882 32.0916L28.6484 28.8351L23.0087 32.0916L28.6484 35.3475Z" fill="#008445"/>
  <path d="M16.1158 35.3475L21.7556 32.0916L16.1158 28.8351L10.4761 32.0916L16.1158 35.3475Z" fill="#008445"/>
  <path d="M34.6014 17.8002L28.9615 14.5443V21.0565L34.6014 24.3123V17.8002Z" fill="#C3DD89"/>
  <path d="M28.335 14.1826L22.6951 10.9262L22.6949 17.4385L28.335 20.6949V14.1826Z" fill="#C3DD89"/>
  <path d="M34.6014 25.0362L28.9615 21.7802V28.2926L34.6014 31.5482V25.0362Z" fill="#C3DD89"/>
  <path d="M10.162 17.8005L15.8019 14.5446L15.8022 21.0565L10.162 24.3122V17.8005Z" fill="#1F3E7C"/>
  <path d="M16.4286 14.1826L22.0686 10.9262V17.4385L16.4286 20.6949V14.1826Z" fill="#1F3E7C"/>
  <path d="M10.162 25.0362L15.8019 21.7802L15.8022 28.2926L10.162 31.5482V25.0362Z" fill="#1F3E7C"/>
  <path d="M28.3346 28.2926V21.7802L22.6949 25.0366V31.5485L28.3346 28.2926Z" fill="#1F3E7C"/>
  <path d="M16.4286 28.2926L22.0683 31.5485V25.0366L16.4286 21.7802V28.2926Z" fill="#C3DD89"/>
  <path d="M22.382 17.9816L16.7419 21.2374L22.382 24.494L28.0215 21.2374L22.382 17.9816Z" fill="#008445"/>
  <path d="M54.7046 14.2321H58.906L67.7827 35.0908H63.0187L61.1252 30.4454H52.3674L50.4736 35.0908H45.8282L54.7046 14.2321ZM59.4976 26.4215L56.7458 19.7056L53.9944 26.4215H59.4976Z" fill="#1F3E7C"/>
  <path d="M67.5143 27.2505V27.1912C67.5143 22.6347 71.1826 18.9366 76.1241 18.9366C81.0359 18.9366 84.6743 22.5755 84.6743 27.1322V27.1912C84.6743 31.7477 81.006 35.4461 76.0646 35.4461C71.1539 35.4461 67.5143 31.807 67.5143 27.2505ZM80.2368 27.2505V27.1912C80.2368 24.854 78.5498 22.8125 76.0648 22.8125C73.4902 22.8125 71.9526 24.795 71.9526 27.1322V27.1912C71.9526 29.5292 73.6392 31.5697 76.1243 31.5697C78.6985 31.5697 80.2368 29.588 80.2368 27.2505Z" fill="#1F3E7C"/>
  <path d="M86.1824 14.3796H94.6446C99.5861 14.3796 102.575 17.3088 102.575 21.5398V21.5991C102.575 26.3919 98.8462 28.8773 94.2008 28.8773H90.7397V35.0908H86.1827V14.3796H86.1824ZM94.349 24.8241C96.6274 24.8241 97.9584 23.463 97.9584 21.6878V21.6288C97.9584 19.5873 96.5381 18.4926 94.2601 18.4926H90.7394V24.8241H94.349Z" fill="#1F3E7C"/>
  <path d="M102.899 32.073L105.591 28.8482C107.455 30.3864 109.408 31.3631 111.775 31.3631C113.639 31.3631 114.763 30.6233 114.763 29.4102V29.3513C114.763 28.1975 114.054 27.6054 110.591 26.7181C106.419 25.6531 103.727 24.4991 103.727 20.3871V20.3277C103.727 16.5702 106.745 14.0848 110.976 14.0848C113.994 14.0848 116.568 15.0313 118.669 16.7177L116.302 20.1503C114.467 18.8781 112.662 18.1084 110.917 18.1084C109.171 18.1084 108.254 18.9075 108.254 19.9136V19.9726C108.254 21.3334 109.141 21.7772 112.721 22.6945C116.923 23.7889 119.29 25.2977 119.29 28.908V28.9666C119.29 33.0798 116.154 35.3874 111.686 35.3874C108.55 35.387 105.384 34.292 102.899 32.073Z" fill="#1F3E7C"/>
</svg>